# xmcd
#
# Track frame offsets:
#	150
#	15985
#	30841
#	43812
#	59785
#	74929
#	96487
#	107597
#	124654
#	142360
#	156230
#	169103
#	187478
#
# Disc length: 2920 seconds
#
# Revision: 0
# Processed by: cddbd v1.5.2PL0 Copyright (c) Steve Scherf et al.
# Submitted via: dBpowerAMP V4.0
#
DISCID=c90b660d
DTITLE=Dr. Albert Flipout feat. Mickey Pantelous - Can't find my pills
DYEAR=2010
DGENRE=Blues
TTITLE0=Can't find my pills
TTITLE1=People talk about you baby
TTITLE2=Your friends (are giving me a hard time)
TTITLE3=There goes Jack
TTITLE4=The Madhouse's on fire
TTITLE5=Let's go for a dance
TTITLE6=Baby, baby, baby c'mon
TTITLE7=Albert's Blues
TTITLE8=I'm going away baby 
TTITLE9=Nickles and Dimes
TTITLE10=It won't let go (Gin makes it grow)
TTITLE11=Last night
TTITLE12=Dying on the sidewalk
EXTD=www.mickeypantelous.com\nThe second album of Mickey Pantelous "Can't find my pills"
EXTT0=
EXTT1=
EXTT2=
EXTT3=
EXTT4=
EXTT5=
EXTT6=
EXTT7=
EXTT8=
EXTT9=
EXTT10=
EXTT11=
EXTT12=
PLAYORDER=
